<svg width="522" height="133" viewBox="0 0 522 133" fill="none" xmlns="http://www.w3.org/2000/svg">
<path d="M82 12H28C12.536 12 0 24.536 0 40V94C0 109.464 12.536 122 28 122H82C97.464 122 110 109.464 110 94V40C110 24.536 97.464 12 82 12Z" fill="#F46A3A"/>
<path d="M44 32H28C23.5817 32 20 35.5817 20 40V94C20 98.4183 23.5817 102 28 102H44C48.4183 102 52 98.4183 52 94V40C52 35.5817 48.4183 32 44 32Z" fill="white"/>
<path d="M82 32H66C61.5817 32 58 35.5817 58 40V94C58 98.4183 61.5817 102 66 102H82C86.4183 102 90 98.4183 90 94V40C90 35.5817 86.4183 32 82 32Z" fill="#FF9A66"/>
<path d="M69 77H67C65.8954 77 65 77.8954 65 79V95C65 96.1046 65.8954 97 67 97H69C70.1046 97 71 96.1046 71 95V79C71 77.8954 70.1046 77 69 77Z" fill="#111111"/>
<path d="M79 67H77C75.8954 67 75 67.8954 75 69V95C75 96.1046 75.8954 97 77 97H79C80.1046 97 81 96.1046 81 95V69C81 67.8954 80.1046 67 79 67Z" fill="#111111"/>
<path d="M89 57H87C85.8954 57 85 57.8954 85 59V95C85 96.1046 85.8954 97 87 97H89C90.1046 97 91 96.1046 91 95V59C91 57.8954 90.1046 57 89 57Z" fill="#111111"/>
<path d="M157.984 108.172C151.813 108.172 146.5 106.922 142.047 104.422C137.62 101.896 134.208 98.3281 131.812 93.7187C129.417 89.0833 128.219 83.6016 128.219 77.2734C128.219 71.1016 129.417 65.6849 131.812 61.0234C134.208 56.362 137.581 52.7292 141.93 50.125C146.305 47.5208 151.435 46.2188 157.32 46.2188C161.279 46.2188 164.964 46.8568 168.375 48.1328C171.813 49.3828 174.807 51.2708 177.359 53.7969C179.938 56.3229 181.943 59.5 183.375 63.3281C184.807 67.1302 185.523 71.5833 185.523 76.6875V81.2578H134.859V70.9453H169.859C169.859 68.5495 169.339 66.4271 168.297 64.5781C167.255 62.7292 165.81 61.2839 163.961 60.2422C162.138 59.1745 160.016 58.6406 157.594 58.6406C155.068 58.6406 152.828 59.2266 150.875 60.3984C148.948 61.5443 147.438 63.0937 146.344 65.0469C145.25 66.974 144.69 69.1224 144.664 71.4922V81.2969C144.664 84.2656 145.211 86.8307 146.305 88.9922C147.424 91.1536 149 92.8203 151.031 93.9922C153.063 95.1641 155.471 95.75 158.258 95.75C160.107 95.75 161.799 95.4896 163.336 94.9688C164.872 94.4479 166.188 93.6667 167.281 92.625C168.375 91.5833 169.208 90.3073 169.781 88.7969L185.172 89.8125C184.391 93.5104 182.789 96.7396 180.367 99.5C177.971 102.234 174.872 104.37 171.07 105.906C167.294 107.417 162.932 108.172 157.984 108.172Z" fill="#111111"/>
<path d="M240.094 50.0078C239.781 46.8568 238.44 44.4089 236.07 42.6641C233.701 40.9193 230.484 40.0469 226.422 40.0469C223.661 40.0469 221.331 40.4375 219.43 41.2187C217.529 41.974 216.07 43.0286 215.055 44.3828C214.065 45.737 213.57 47.2734 213.57 48.9922C213.518 50.4245 213.818 51.6745 214.469 52.7422C215.146 53.8099 216.07 54.7344 217.242 55.5156C218.414 56.2708 219.768 56.9349 221.305 57.5078C222.841 58.0547 224.482 58.5234 226.227 58.9141L233.414 60.6328C236.904 61.4141 240.107 62.4557 243.023 63.7578C245.94 65.0599 248.466 66.6615 250.602 68.5625C252.737 70.4635 254.391 72.7031 255.563 75.2812C256.76 77.8594 257.372 80.8151 257.398 84.1484C257.372 89.0443 256.122 93.2891 253.648 96.8828C251.201 100.451 247.659 103.224 243.023 105.203C238.414 107.156 232.854 108.133 226.344 108.133C219.885 108.133 214.26 107.143 209.469 105.164C204.703 103.185 200.979 100.255 198.297 96.375C195.641 92.4687 194.247 87.638 194.117 81.8828H210.484C210.667 84.5651 211.435 86.8047 212.789 88.6016C214.169 90.3724 216.005 91.7135 218.297 92.625C220.615 93.5104 223.232 93.9531 226.148 93.9531C229.013 93.9531 231.5 93.5365 233.609 92.7031C235.745 91.8698 237.398 90.7109 238.57 89.2266C239.742 87.7422 240.328 86.0365 240.328 84.1094C240.328 82.3125 239.794 80.8021 238.727 79.5781C237.685 78.3542 236.148 77.3125 234.117 76.4531C232.112 75.5937 229.651 74.8125 226.734 74.1094L218.023 71.9219C211.279 70.2812 205.953 67.7161 202.047 64.2266C198.141 60.737 196.201 56.0365 196.227 50.125C196.201 45.2812 197.49 41.0495 200.094 37.4297C202.724 33.8099 206.331 30.9844 210.914 28.9531C215.497 26.9219 220.706 25.9062 226.539 25.9062C232.477 25.9062 237.659 26.9219 242.086 28.9531C246.539 30.9844 250.003 33.8099 252.477 37.4297C254.951 41.0495 256.227 45.2422 256.305 50.0078H240.094ZM285.689 27V107H268.775V27H285.689ZM299.605 27H320.465L342.496 80.75H343.434L365.465 27H386.324V107H369.918V54.9297H369.254L348.551 106.609H337.379L316.676 54.7344H316.012V107H299.605V27Z" fill="#111111"/>
<path d="M240.094 50.0078C239.781 46.8568 238.44 44.4089 236.07 42.6641C233.701 40.9193 230.484 40.0469 226.422 40.0469C223.661 40.0469 221.331 40.4375 219.43 41.2187C217.529 41.974 216.07 43.0286 215.055 44.3828C214.065 45.737 213.57 47.2734 213.57 48.9922C213.518 50.4245 213.818 51.6745 214.469 52.7422C215.146 53.8099 216.07 54.7344 217.242 55.5156C218.414 56.2708 219.768 56.9349 221.305 57.5078C222.841 58.0547 224.482 58.5234 226.227 58.9141L233.414 60.6328C236.904 61.4141 240.107 62.4557 243.023 63.7578C245.94 65.0599 248.466 66.6615 250.602 68.5625C252.737 70.4635 254.391 72.7031 255.563 75.2812C256.76 77.8594 257.372 80.8151 257.398 84.1484C257.372 89.0443 256.122 93.2891 253.648 96.8828C251.201 100.451 247.659 103.224 243.023 105.203C238.414 107.156 232.854 108.133 226.344 108.133C219.885 108.133 214.26 107.143 209.469 105.164C204.703 103.185 200.979 100.255 198.297 96.375C195.641 92.4687 194.247 87.638 194.117 81.8828H210.484C210.667 84.5651 211.435 86.8047 212.789 88.6016C214.169 90.3724 216.005 91.7135 218.297 92.625C220.615 93.5104 223.232 93.9531 226.148 93.9531C229.013 93.9531 231.5 93.5365 233.609 92.7031C235.745 91.8698 237.398 90.7109 238.57 89.2266C239.742 87.7422 240.328 86.0365 240.328 84.1094C240.328 82.3125 239.794 80.8021 238.727 79.5781C237.685 78.3542 236.148 77.3125 234.117 76.4531C232.112 75.5937 229.651 74.8125 226.734 74.1094L218.023 71.9219C211.279 70.2812 205.953 67.7161 202.047 64.2266C198.141 60.737 196.201 56.0365 196.227 50.125C196.201 45.2812 197.49 41.0495 200.094 37.4297C202.724 33.8099 206.331 30.9844 210.914 28.9531C215.497 26.9219 220.706 25.9062 226.539 25.9062C232.477 25.9062 237.659 26.9219 242.086 28.9531C246.539 30.9844 250.003 33.8099 252.477 37.4297C254.951 41.0495 256.227 45.2422 256.305 50.0078H240.094ZM285.689 27V107H268.775V27H285.689ZM299.605 27H320.465L342.496 80.75H343.434L365.465 27H386.324V107H369.918V54.9297H369.254L348.551 106.609H337.379L316.676 54.7344H316.012V107H299.605V27Z" fill="#111111"/>
<path d="M399.635 107V97.0781L429.01 60.7109V60.2812H400.65V47H449.049V57.8203L421.471 93.2891V93.7187H450.064V107H399.635ZM488.18 108.172C482.112 108.172 476.865 106.883 472.438 104.305C468.036 101.701 464.638 98.0807 462.242 93.4453C459.846 88.7839 458.648 83.3802 458.648 77.2344C458.648 71.0365 459.846 65.6198 462.242 60.9844C464.638 56.3229 468.036 52.7031 472.438 50.125C476.865 47.5208 482.112 46.2188 488.18 46.2188C494.247 46.2188 499.482 47.5208 503.883 50.125C508.31 52.7031 511.721 56.3229 514.117 60.9844C516.513 65.6198 517.711 71.0365 517.711 77.2344C517.711 83.3802 516.513 88.7839 514.117 93.4453C511.721 98.0807 508.31 101.701 503.883 104.305C499.482 106.883 494.247 108.172 488.18 108.172ZM488.258 95.2812C491.018 95.2812 493.323 94.5 495.172 92.9375C497.021 91.349 498.414 89.1875 499.352 86.4531C500.315 83.7187 500.797 80.6068 500.797 77.1172C500.797 73.6276 500.315 70.5156 499.352 67.7812C498.414 65.0469 497.021 62.8854 495.172 61.2969C493.323 59.7083 491.018 58.9141 488.258 58.9141C485.471 58.9141 483.128 59.7083 481.227 61.2969C479.352 62.8854 477.932 65.0469 476.969 67.7812C476.031 70.5156 475.563 73.6276 475.563 77.1172C475.563 80.6068 476.031 83.7187 476.969 86.4531C477.932 89.1875 479.352 91.349 481.227 92.9375C483.128 94.5 485.471 95.2812 488.258 95.2812Z" fill="#F46A3A"/>
</svg>
