<svg width="448" height="112" viewBox="0 0 448 112" fill="none" xmlns="http://www.w3.org/2000/svg">
<path d="M82 0H28C12.536 0 0 12.536 0 28V82C0 97.464 12.536 110 28 110H82C97.464 110 110 97.464 110 82V28C110 12.536 97.464 0 82 0Z" fill="#F46A3A"/>
<path d="M44 20H28C23.5817 20 20 23.5817 20 28V82C20 86.4183 23.5817 90 28 90H44C48.4183 90 52 86.4183 52 82V28C52 23.5817 48.4183 20 44 20Z" fill="white"/>
<path d="M82 20H66C61.5817 20 58 23.5817 58 28V82C58 86.4183 61.5817 90 66 90H82C86.4183 90 90 86.4183 90 82V28C90 23.5817 86.4183 20 82 20Z" fill="#FF9A66"/>
<path d="M69 65H67C65.8954 65 65 65.8954 65 67V83C65 84.1046 65.8954 85 67 85H69C70.1046 85 71 84.1046 71 83V67C71 65.8954 70.1046 65 69 65Z" fill="#111111"/>
<path d="M79 55H77C75.8954 55 75 55.8954 75 57V83C75 84.1046 75.8954 85 77 85H79C80.1046 85 81 84.1046 81 83V57C81 55.8954 80.1046 55 79 55Z" fill="#111111"/>
<path d="M89 45H87C85.8954 45 85 45.8954 85 47V83C85 84.1046 85.8954 85 87 85H89C90.1046 85 91 84.1046 91 83V47C91 45.8954 90.1046 45 89 45Z" fill="#111111"/>
<path d="M149.805 90.9588C144.756 90.9588 140.409 89.9361 136.766 87.8906C133.143 85.8239 130.352 82.9048 128.392 79.1335C126.432 75.3409 125.452 70.8558 125.452 65.6783C125.452 60.6286 126.432 56.1967 128.392 52.3828C130.352 48.5689 133.112 45.5966 136.67 43.4659C140.249 41.3352 144.447 40.2699 149.262 40.2699C152.501 40.2699 155.516 40.7919 158.307 41.8359C161.119 42.8587 163.57 44.4034 165.658 46.4702C167.767 48.5369 169.408 51.1364 170.58 54.2685C171.751 57.3793 172.337 61.0227 172.337 65.1989V68.9382H130.885V60.5007H159.521C159.521 58.5405 159.095 56.804 158.243 55.2912C157.391 53.7784 156.208 52.5959 154.695 51.7436C153.204 50.87 151.467 50.4332 149.486 50.4332C147.419 50.4332 145.587 50.9126 143.989 51.8714C142.412 52.8089 141.176 54.0767 140.281 55.6747C139.386 57.2514 138.928 59.0092 138.907 60.9482V68.9702C138.907 71.3991 139.354 73.4979 140.249 75.2663C141.165 77.0348 142.455 78.3984 144.116 79.3572C145.778 80.3161 147.749 80.7955 150.029 80.7955C151.542 80.7955 152.927 80.5824 154.184 80.1562C155.441 79.7301 156.517 79.0909 157.412 78.2386C158.307 77.3864 158.989 76.3423 159.457 75.1065L172.05 75.9375C171.411 78.9631 170.1 81.6051 168.119 83.8636C166.158 86.1009 163.623 87.848 160.512 89.1051C157.423 90.3409 153.854 90.9588 149.805 90.9588Z" fill="#111111"/>
<path d="M214.286 43.37C214.03 40.7919 212.933 38.7891 210.994 37.3615C209.055 35.9339 206.424 35.2202 203.1 35.2202C200.841 35.2202 198.934 35.5398 197.379 36.179C195.823 36.7969 194.63 37.6598 193.799 38.7678C192.99 39.8757 192.585 41.1328 192.585 42.5391C192.542 43.7109 192.787 44.7337 193.32 45.6072C193.874 46.4808 194.63 47.2372 195.589 47.8764C196.548 48.4943 197.656 49.0376 198.913 49.5064C200.17 49.9538 201.512 50.3374 202.94 50.657L208.821 52.0632C211.676 52.7024 214.296 53.5547 216.683 54.62C219.069 55.6854 221.136 56.9957 222.883 58.5511C224.63 60.1065 225.983 61.9389 226.942 64.0483C227.922 66.1577 228.423 68.576 228.444 71.3033C228.423 75.3089 227.4 78.782 225.376 81.7223C223.373 84.6413 220.475 86.9105 216.683 88.5298C212.912 90.1278 208.363 90.9268 203.036 90.9268C197.752 90.9268 193.149 90.1172 189.229 88.4979C185.33 86.8786 182.283 84.4815 180.088 81.3068C177.915 78.1108 176.775 74.1584 176.669 69.4496H190.06C190.209 71.6442 190.838 73.4766 191.946 74.9467C193.075 76.3956 194.577 77.4929 196.452 78.2386C198.348 78.9631 200.49 79.3253 202.876 79.3253C205.22 79.3253 207.255 78.9844 208.98 78.3026C210.728 77.6207 212.081 76.6726 213.039 75.4581C213.998 74.2436 214.478 72.848 214.478 71.2713C214.478 69.8011 214.041 68.5653 213.167 67.5639C212.315 66.5625 211.058 65.7102 209.396 65.0071C207.755 64.304 205.742 63.6648 203.355 63.0895L196.228 61.2997C190.71 59.9574 186.353 57.8587 183.157 55.0036C179.961 52.1484 178.373 48.3026 178.394 43.4659C178.373 39.5028 179.428 36.0405 181.559 33.0788C183.711 30.1172 186.662 27.8054 190.412 26.1435C194.162 24.4815 198.423 23.6506 203.196 23.6506C208.054 23.6506 212.294 24.4815 215.916 26.1435C219.559 27.8054 222.393 30.1172 224.417 33.0788C226.441 36.0405 227.485 39.4709 227.549 43.37H214.286ZM248.891 24.5455V90H235.053V24.5455H248.891ZM257.577 24.5455H274.644L292.67 68.5227H293.437L311.462 24.5455H328.529V90H315.106V47.397H314.562L297.623 89.6804H288.483L271.544 47.2372H271V90H257.577V24.5455Z" fill="#111111"/>
<path d="M214.286 43.37C214.03 40.7919 212.933 38.7891 210.994 37.3615C209.055 35.9339 206.424 35.2202 203.1 35.2202C200.841 35.2202 198.934 35.5398 197.379 36.179C195.823 36.7969 194.63 37.6598 193.799 38.7678C192.99 39.8757 192.585 41.1328 192.585 42.5391C192.542 43.7109 192.787 44.7337 193.32 45.6072C193.874 46.4808 194.63 47.2372 195.589 47.8764C196.548 48.4943 197.656 49.0376 198.913 49.5064C200.17 49.9538 201.512 50.3374 202.94 50.657L208.821 52.0632C211.676 52.7024 214.296 53.5547 216.683 54.62C219.069 55.6854 221.136 56.9957 222.883 58.5511C224.63 60.1065 225.983 61.9389 226.942 64.0483C227.922 66.1577 228.423 68.576 228.444 71.3033C228.423 75.3089 227.4 78.782 225.376 81.7223C223.373 84.6413 220.475 86.9105 216.683 88.5298C212.912 90.1278 208.363 90.9268 203.036 90.9268C197.752 90.9268 193.149 90.1172 189.229 88.4979C185.33 86.8786 182.283 84.4815 180.088 81.3068C177.915 78.1108 176.775 74.1584 176.669 69.4496H190.06C190.209 71.6442 190.838 73.4766 191.946 74.9467C193.075 76.3956 194.577 77.4929 196.452 78.2386C198.348 78.9631 200.49 79.3253 202.876 79.3253C205.22 79.3253 207.255 78.9844 208.98 78.3026C210.728 77.6207 212.081 76.6726 213.039 75.4581C213.998 74.2436 214.478 72.848 214.478 71.2713C214.478 69.8011 214.041 68.5653 213.167 67.5639C212.315 66.5625 211.058 65.7102 209.396 65.0071C207.755 64.304 205.742 63.6648 203.355 63.0895L196.228 61.2997C190.71 59.9574 186.353 57.8587 183.157 55.0036C179.961 52.1484 178.373 48.3026 178.394 43.4659C178.373 39.5028 179.428 36.0405 181.559 33.0788C183.711 30.1172 186.662 27.8054 190.412 26.1435C194.162 24.4815 198.423 23.6506 203.196 23.6506C208.054 23.6506 212.294 24.4815 215.916 26.1435C219.559 27.8054 222.393 30.1172 224.417 33.0788C226.441 36.0405 227.485 39.4709 227.549 43.37H214.286ZM248.891 24.5455V90H235.053V24.5455H248.891ZM257.577 24.5455H274.644L292.67 68.5227H293.437L311.462 24.5455H328.529V90H315.106V47.397H314.562L297.623 89.6804H288.483L271.544 47.2372H271V90H257.577V24.5455Z" fill="#111111"/>
<path d="M336.719 90V81.8821L360.753 52.1271V51.7756H337.55V40.9091H377.149V49.7621L354.585 78.782V79.1335H377.98V90H336.719ZM406.465 90.9588C401.501 90.9588 397.207 89.9041 393.585 87.7947C389.984 85.6641 387.204 82.7024 385.244 78.9098C383.283 75.0959 382.303 70.6747 382.303 65.6463C382.303 60.5753 383.283 56.1435 385.244 52.3509C387.204 48.5369 389.984 45.5753 393.585 43.4659C397.207 41.3352 401.501 40.2699 406.465 40.2699C411.43 40.2699 415.712 41.3352 419.313 43.4659C422.935 45.5753 425.727 48.5369 427.687 52.3509C429.647 56.1435 430.627 60.5753 430.627 65.6463C430.627 70.6747 429.647 75.0959 427.687 78.9098C425.727 82.7024 422.935 85.6641 419.313 87.7947C415.712 89.9041 411.43 90.9588 406.465 90.9588ZM406.529 80.4119C408.788 80.4119 410.673 79.7727 412.186 78.4943C413.699 77.1946 414.839 75.4261 415.606 73.1889C416.394 70.9517 416.788 68.4055 416.788 65.5504C416.788 62.6953 416.394 60.1491 415.606 57.9119C414.839 55.6747 413.699 53.9062 412.186 52.6065C410.673 51.3068 408.788 50.657 406.529 50.657C404.249 50.657 402.332 51.3068 400.776 52.6065C399.242 53.9062 398.081 55.6747 397.293 57.9119C396.526 60.1491 396.142 62.6953 396.142 65.5504C396.142 68.4055 396.526 70.9517 397.293 73.1889C398.081 75.4261 399.242 77.1946 400.776 78.4943C402.332 79.7727 404.249 80.4119 406.529 80.4119Z" fill="#F46A3A"/>
</svg>
